# xmcd
#
# Track frame offsets: 
#        150
#        17983
#        39025
#        56765
#        82608
#        100763
#        122453
#        142625
#        162415
#        181940
#
# Disc length: 2702 seconds
#
# Revision: 0
# Processed by: cddbd v1.5.2PL0 Copyright (c) Steve Scherf et al.
# Submitted via: ExactAudioCopy v1.0b3
#
DISCID=690a8c0a
DTITLE=Tuan Vu, VA - Diep Khuc Thuong Dau
DYEAR=1990
DGENRE=
TTITLE0=Tuan Vu - Ngo y
TTITLE1=Huong Lan - Chuyen tinh khong di vang
TTITLE2=Luu Hong - Ngang trai
TTITLE3=Tuan Vu, Giao Linh - LK Ke chuyen trong dem, Ke tu dem do
TTITLE4=Nhu Mai - Bong hong Viet Nam
TTITLE5=Huong Lan - Dem khong con tieng sung
TTITLE6=Tuan Vu - Biet dau nguon coi
TTITLE7=Luu Hong - Diep khuc thuong dau
TTITLE8=Tuan Vu - Ngay mai toi ve
TTITLE9=Thien Trang - Nguoi tinh khong den
EXTD=
EXTT0=
EXTT1=
EXTT2=
EXTT3=
EXTT4=
EXTT5=
EXTT6=
EXTT7=
EXTT8=
EXTT9=
PLAYORDER=
